<?xml version="1.0" encoding="UTF-8" standalone="no"?>
<!-- Created with Inkscape (http://www.inkscape.org/) -->

<svg
   xmlns:dc="http://purl.org/dc/elements/1.1/"
   xmlns:cc="http://creativecommons.org/ns#"
   xmlns:rdf="http://www.w3.org/1999/02/22-rdf-syntax-ns#"
   xmlns:svg="http://www.w3.org/2000/svg"
   xmlns="http://www.w3.org/2000/svg"
   xmlns:sodipodi="http://sodipodi.sourceforge.net/DTD/sodipodi-0.dtd"
   xmlns:inkscape="http://www.inkscape.org/namespaces/inkscape"
   width="48"
   height="48"
   viewBox="0 0 12.7 12.7"
   version="1.1"
   id="svg8"
   inkscape:version="0.92.2 (5c3e80d, 2017-08-06)"
   sodipodi:docname="drawing4empty.svg">
  <defs
     id="defs2" />
  <sodipodi:namedview
     id="base"
     pagecolor="#ffffff"
     bordercolor="#666666"
     borderopacity="1.0"
     inkscape:pageopacity="0.0"
     inkscape:pageshadow="2"
     inkscape:zoom="11.2"
     inkscape:cx="21.525075"
     inkscape:cy="29.271703"
     inkscape:document-units="px"
     inkscape:current-layer="layer1"
     showgrid="false"
     units="px"
     inkscape:window-width="1920"
     inkscape:window-height="1017"
     inkscape:window-x="1912"
     inkscape:window-y="-8"
     inkscape:window-maximized="1" />
  <metadata
     id="metadata5">
    <rdf:RDF>
      <cc:Work
         rdf:about="">
        <dc:format>image/svg+xml</dc:format>
        <dc:type
           rdf:resource="http://purl.org/dc/dcmitype/StillImage" />
        <dc:title></dc:title>
      </cc:Work>
    </rdf:RDF>
  </metadata>
  <g
     inkscape:label="Layer 1"
     inkscape:groupmode="layer"
     id="layer1"
     transform="translate(0,-284.3)">
    <path
       style="color:#000000;font-style:normal;font-variant:normal;font-weight:normal;font-stretch:normal;font-size:medium;line-height:normal;font-family:sans-serif;font-variant-ligatures:normal;font-variant-position:normal;font-variant-caps:normal;font-variant-numeric:normal;font-variant-alternates:normal;font-feature-settings:normal;text-indent:0;text-align:start;text-decoration:none;text-decoration-line:none;text-decoration-style:solid;text-decoration-color:#000000;letter-spacing:normal;word-spacing:normal;text-transform:none;writing-mode:lr-tb;direction:ltr;text-orientation:mixed;dominant-baseline:auto;baseline-shift:baseline;text-anchor:start;white-space:normal;shape-padding:0;clip-rule:nonzero;display:inline;overflow:visible;visibility:visible;opacity:1;isolation:auto;mix-blend-mode:normal;color-interpolation:sRGB;color-interpolation-filters:linearRGB;solid-color:#000000;solid-opacity:1;vector-effect:none;fill:#000000;fill-opacity:1;fill-rule:nonzero;stroke:none;stroke-width:3.63950348;stroke-linecap:butt;stroke-linejoin:miter;stroke-miterlimit:4;stroke-dasharray:none;stroke-dashoffset:0;stroke-opacity:1;color-rendering:auto;image-rendering:auto;shape-rendering:auto;text-rendering:auto;enable-background:accumulate"
       d="M 24.242188 3.9082031 C 14.631909 3.9082031 7.1464829 13.075448 7.1464844 23.978516 C 7.1464836 29.662691 9.1923816 34.860952 12.501953 38.548828 L 14.4375 35.199219 C 12.192834 32.287821 10.785156 28.373893 10.785156 23.978516 C 10.785155 14.721357 16.982465 7.546875 24.242188 7.546875 C 26.134144 7.5468652 27.949439 8.0432713 29.605469 8.9277344 L 31.425781 5.7734375 C 29.252299 4.5901024 26.82872 3.9082031 24.242188 3.9082031 z M 35.486328 8.8769531 L 33.582031 12.173828 C 36.096778 15.133004 37.691407 19.285401 37.691406 23.978516 C 37.691408 33.235675 31.50191 40.412109 24.242188 40.412109 C 22.118495 40.412109 20.092635 39.782135 18.279297 38.681641 L 16.455078 41.841797 C 18.778437 43.239996 21.41442 44.050781 24.242188 44.050781 C 33.852466 44.050781 41.332031 34.881621 41.332031 23.978516 C 41.332031 18.016155 39.084879 12.586124 35.486328 8.8769531 z "
       transform="matrix(0.26458333,0,0,0.26458333,0,284.3)"
       id="path815" />
    <path
       style="fill:#000000;stroke:none;stroke-width:0.9902488;stroke-linecap:round;stroke-linejoin:round;stroke-miterlimit:4;stroke-dasharray:none"
       d="m 2.6327876,295.97062 6.44922,-11.17037 c 0.143965,-0.24936 0.460596,-0.3342 0.709942,-0.19024 0.2493544,0.14397 0.3341954,0.4606 0.1902308,0.70995 l -6.44922,11.17038 c -0.14396,0.24934 -0.4605911,0.33418 -0.7099458,0.19022 -0.249346,-0.14396 -0.334187,-0.46059 -0.190227,-0.70994 z"
       id="rect829"
       inkscape:connector-curvature="0" />
  </g>
</svg>
